<?xml version="1.0" encoding="utf-8"?>
<!-- Generator: Adobe Illustrator 16.0.0, SVG Export Plug-In . SVG Version: 6.00 Build 0)  -->
<!DOCTYPE svg PUBLIC "-//W3C//DTD SVG 1.1//EN" "http://www.w3.org/Graphics/SVG/1.1/DTD/svg11.dtd">
<svg version="1.1" id="Layer_1" xmlns="http://www.w3.org/2000/svg" xmlns:xlink="http://www.w3.org/1999/xlink" x="0px" y="0px"
	 width="1014px" height="768px" viewBox="0 0 1014 768" enable-background="new 0 0 1014 768" xml:space="preserve">
<rect y="41.793" fill="none" width="1014" height="684.413"/>
<path fill-opacity="0" d="M0,41.793h1014.263v684.674H0V41.793z"/>
<path fill="#FFD966" d="M310.649,135.162h215.348V649.5H310.649V135.162z"/>
<path fill="#93C47D" d="M87.851,135.162h222.788V649.5H87.851V135.162z"/>
<path fill="#A4C2F4" d="M89.656,64.703h438.146v63.056H89.656V64.703z"/>
<path d="M247.147,99.826l3.886-10.091h1.438l4.129,10.091h-1.52l-1.184-3.062h-4.222l-1.102,3.062H247.147z M250.059,95.686h3.422
	l-1.044-2.807c-0.325-0.843-0.564-1.539-0.719-2.087c-0.132,0.649-0.313,1.291-0.546,1.925L250.059,95.686z M257.336,99.826v-7.319
	h1.113v1.044c0.541-0.804,1.318-1.206,2.331-1.206c0.44,0,0.847,0.081,1.218,0.243c0.371,0.155,0.646,0.364,0.823,0.626
	c0.186,0.255,0.317,0.557,0.395,0.905c0.047,0.232,0.07,0.634,0.07,1.206v4.5h-1.241v-4.454c0-0.502-0.051-0.877-0.151-1.125
	c-0.093-0.255-0.263-0.456-0.51-0.603c-0.248-0.147-0.538-0.22-0.87-0.22c-0.526,0-0.982,0.166-1.369,0.499
	c-0.379,0.333-0.568,0.97-0.568,1.914v3.99H257.336z M267.067,99.826l-2.783-7.319h1.311l1.577,4.384
	c0.17,0.472,0.324,0.963,0.464,1.473c0.108-0.387,0.263-0.851,0.464-1.392l1.624-4.465h1.275l-2.771,7.319H267.067z M276.74,98.921
	c-0.464,0.395-0.908,0.673-1.333,0.835c-0.426,0.155-0.882,0.232-1.369,0.232c-0.796,0-1.411-0.193-1.844-0.58
	c-0.434-0.395-0.649-0.897-0.649-1.508c0-0.364,0.081-0.692,0.243-0.986s0.375-0.53,0.638-0.708
	c0.263-0.178,0.561-0.313,0.894-0.406c0.247-0.069,0.614-0.131,1.102-0.186c1.005-0.124,1.744-0.267,2.216-0.429
	c0-0.17,0-0.278,0-0.325c0-0.502-0.116-0.858-0.349-1.067c-0.316-0.278-0.788-0.417-1.415-0.417c-0.58,0-1.009,0.101-1.287,0.301
	c-0.278,0.201-0.483,0.564-0.615,1.09l-1.218-0.174c0.116-0.518,0.298-0.936,0.546-1.252c0.255-0.317,0.618-0.561,1.09-0.731
	c0.479-0.178,1.036-0.267,1.67-0.267c0.627,0,1.133,0.073,1.52,0.22c0.387,0.147,0.673,0.333,0.858,0.557
	c0.185,0.224,0.313,0.506,0.383,0.847c0.046,0.209,0.069,0.588,0.069,1.137v1.659c0,1.152,0.023,1.883,0.07,2.192
	c0.054,0.302,0.162,0.592,0.324,0.87h-1.299C276.853,99.571,276.771,99.27,276.74,98.921z M276.637,96.161
	c-0.449,0.178-1.126,0.333-2.03,0.464c-0.511,0.069-0.87,0.151-1.079,0.244c-0.208,0.093-0.371,0.228-0.486,0.406
	c-0.116,0.178-0.174,0.375-0.174,0.592c0,0.332,0.123,0.61,0.371,0.835c0.255,0.216,0.622,0.325,1.102,0.325
	s0.904-0.104,1.275-0.313c0.371-0.217,0.646-0.503,0.824-0.858c0.131-0.286,0.197-0.7,0.197-1.241L276.637,96.161L276.637,96.161z
	 M272.937,91.081v-1.415h1.299v1.415H272.937z M275.511,91.081v-1.415h1.288v1.415H275.511z M279.664,99.826v-7.319h1.113v1.044
	c0.541-0.804,1.318-1.206,2.331-1.206c0.441,0,0.847,0.081,1.219,0.243c0.371,0.155,0.646,0.364,0.823,0.626
	c0.186,0.255,0.316,0.557,0.395,0.905c0.046,0.232,0.069,0.634,0.069,1.206v4.5h-1.241v-4.454c0-0.502-0.05-0.877-0.15-1.125
	c-0.093-0.255-0.264-0.456-0.511-0.603s-0.537-0.22-0.87-0.22c-0.525,0-0.981,0.166-1.368,0.499
	c-0.379,0.333-0.568,0.97-0.568,1.914v3.99H279.664z M292.11,99.826v-0.928c-0.465,0.727-1.145,1.09-2.042,1.09
	c-0.58,0-1.117-0.158-1.612-0.475c-0.487-0.325-0.865-0.773-1.137-1.346c-0.263-0.58-0.394-1.245-0.394-1.995
	c0-0.727,0.119-1.388,0.359-1.983c0.247-0.596,0.61-1.052,1.09-1.369c0.487-0.317,1.032-0.475,1.636-0.475
	c0.44,0,0.831,0.093,1.171,0.278c0.349,0.186,0.631,0.429,0.847,0.73v-3.619h1.229v10.091L292.11,99.826L292.11,99.826z
	 M288.189,96.172c0,0.936,0.197,1.636,0.592,2.1c0.402,0.464,0.87,0.696,1.403,0.696c0.541,0,1.001-0.22,1.38-0.661
	c0.379-0.44,0.568-1.117,0.568-2.03c0-0.998-0.193-1.728-0.58-2.192c-0.386-0.472-0.861-0.708-1.426-0.708
	c-0.55,0-1.01,0.224-1.381,0.672C288.375,94.499,288.189,95.206,288.189,96.172z M299.847,98.921
	c-0.464,0.395-0.908,0.673-1.334,0.835c-0.425,0.155-0.881,0.232-1.368,0.232c-0.797,0-1.411-0.193-1.845-0.58
	c-0.433-0.395-0.649-0.897-0.649-1.508c0-0.364,0.081-0.692,0.244-0.986c0.162-0.294,0.375-0.53,0.638-0.708
	c0.263-0.178,0.561-0.313,0.893-0.406c0.248-0.069,0.615-0.131,1.103-0.186c1.005-0.124,1.743-0.267,2.215-0.429
	c0-0.17,0-0.278,0-0.325c0-0.502-0.116-0.858-0.348-1.067c-0.317-0.278-0.789-0.417-1.415-0.417c-0.58,0-1.009,0.101-1.287,0.301
	c-0.279,0.201-0.483,0.564-0.615,1.09l-1.218-0.174c0.116-0.518,0.298-0.936,0.545-1.252c0.255-0.317,0.619-0.561,1.091-0.731
	c0.479-0.178,1.036-0.267,1.67-0.267c0.626,0,1.133,0.073,1.52,0.22s0.673,0.333,0.858,0.557c0.185,0.224,0.312,0.506,0.383,0.847
	c0.046,0.209,0.069,0.588,0.069,1.137v1.659c0,1.152,0.023,1.883,0.069,2.192c0.055,0.302,0.162,0.592,0.325,0.87h-1.299
	C299.959,99.571,299.878,99.27,299.847,98.921z M299.742,96.161c-0.448,0.178-1.125,0.333-2.029,0.464
	c-0.511,0.069-0.87,0.151-1.079,0.244c-0.209,0.093-0.371,0.228-0.487,0.406c-0.115,0.178-0.174,0.375-0.174,0.592
	c0,0.332,0.124,0.61,0.371,0.835c0.256,0.216,0.623,0.325,1.103,0.325c0.479,0,0.904-0.104,1.275-0.313
	c0.371-0.217,0.646-0.503,0.823-0.858c0.132-0.286,0.197-0.7,0.197-1.241V96.161L299.742,96.161z M302.759,99.826v-7.319h1.113
	v1.114c0.286-0.519,0.549-0.858,0.789-1.021c0.239-0.17,0.506-0.255,0.8-0.255c0.418,0,0.843,0.135,1.276,0.406l-0.43,1.148
	c-0.302-0.178-0.606-0.267-0.916-0.267c-0.271,0-0.515,0.082-0.73,0.244c-0.209,0.163-0.36,0.387-0.453,0.673
	c-0.139,0.44-0.208,0.924-0.208,1.45v3.828L302.759,99.826L302.759,99.826z M311.009,100.429l1.195,0.186
	c0.054,0.371,0.197,0.642,0.429,0.812c0.302,0.224,0.72,0.336,1.253,0.336c0.58,0,1.024-0.116,1.334-0.348
	c0.309-0.224,0.521-0.541,0.638-0.951c0.062-0.255,0.089-0.789,0.081-1.601c-0.541,0.642-1.214,0.963-2.019,0.963
	c-1.005,0-1.786-0.363-2.343-1.09c-0.549-0.727-0.823-1.597-0.823-2.61c0-0.696,0.128-1.337,0.383-1.925
	c0.255-0.595,0.622-1.051,1.102-1.369c0.479-0.325,1.04-0.487,1.682-0.487c0.866,0,1.578,0.348,2.135,1.043v-0.881h1.148v6.321
	c0,1.145-0.116,1.953-0.349,2.424c-0.231,0.479-0.599,0.854-1.102,1.125c-0.503,0.278-1.121,0.417-1.855,0.417
	c-0.874,0-1.581-0.197-2.123-0.591C311.241,101.81,310.986,101.218,311.009,100.429z M312.03,96.033c0,0.967,0.189,1.67,0.568,2.111
	c0.386,0.44,0.865,0.661,1.438,0.661c0.564,0,1.04-0.221,1.427-0.661c0.387-0.441,0.58-1.129,0.58-2.065
	c0-0.897-0.201-1.569-0.604-2.018c-0.394-0.456-0.869-0.684-1.426-0.684c-0.55,0-1.018,0.224-1.404,0.672
	C312.224,94.491,312.03,95.152,312.03,96.033z M318.92,99.826v-7.319h1.113v1.114c0.286-0.519,0.549-0.858,0.789-1.021
	c0.239-0.17,0.506-0.255,0.8-0.255c0.418,0,0.843,0.135,1.276,0.406l-0.43,1.148c-0.302-0.178-0.606-0.267-0.916-0.267
	c-0.271,0-0.514,0.082-0.73,0.244c-0.209,0.163-0.359,0.387-0.452,0.673c-0.14,0.44-0.209,0.924-0.209,1.45v3.828L318.92,99.826
	L318.92,99.826z M328.322,98.921c-0.465,0.395-0.909,0.673-1.334,0.835c-0.426,0.155-0.882,0.232-1.369,0.232
	c-0.796,0-1.411-0.193-1.844-0.58c-0.434-0.395-0.649-0.897-0.649-1.508c0-0.364,0.081-0.692,0.243-0.986s0.375-0.53,0.638-0.708
	c0.263-0.178,0.561-0.313,0.894-0.406c0.247-0.069,0.614-0.131,1.102-0.186c1.005-0.124,1.744-0.267,2.216-0.429
	c0-0.17,0-0.278,0-0.325c0-0.502-0.116-0.858-0.349-1.067c-0.316-0.278-0.788-0.417-1.415-0.417c-0.58,0-1.009,0.101-1.287,0.301
	c-0.278,0.201-0.483,0.564-0.615,1.09l-1.218-0.174c0.116-0.518,0.298-0.936,0.546-1.252c0.255-0.317,0.618-0.561,1.09-0.731
	c0.479-0.178,1.036-0.267,1.67-0.267c0.627,0,1.133,0.073,1.52,0.22c0.387,0.147,0.673,0.333,0.858,0.557
	c0.185,0.224,0.313,0.506,0.383,0.847c0.047,0.209,0.069,0.588,0.069,1.137v1.659c0,1.152,0.023,1.883,0.07,2.192
	c0.054,0.302,0.162,0.592,0.324,0.87h-1.299C328.434,99.571,328.353,99.27,328.322,98.921z M328.218,96.161
	c-0.449,0.178-1.126,0.333-2.03,0.464c-0.51,0.069-0.87,0.151-1.078,0.244c-0.209,0.093-0.372,0.228-0.487,0.406
	c-0.116,0.178-0.174,0.375-0.174,0.592c0,0.332,0.123,0.61,0.371,0.835c0.255,0.216,0.622,0.325,1.102,0.325
	s0.904-0.104,1.275-0.313c0.372-0.217,0.646-0.503,0.824-0.858c0.131-0.286,0.197-0.7,0.197-1.241V96.161L328.218,96.161z
	 M324.518,91.081v-1.415h1.299v1.415H324.518z M327.092,91.081v-1.415h1.288v1.415H327.092z M331.245,99.826v-7.319h1.113v1.044
	c0.542-0.804,1.318-1.206,2.331-1.206c0.441,0,0.848,0.081,1.219,0.243c0.371,0.155,0.646,0.364,0.823,0.626
	c0.186,0.255,0.316,0.557,0.395,0.905c0.046,0.232,0.069,0.634,0.069,1.206v4.5h-1.241v-4.454c0-0.502-0.05-0.877-0.15-1.125
	c-0.093-0.255-0.264-0.456-0.511-0.603s-0.537-0.22-0.87-0.22c-0.525,0-0.981,0.166-1.368,0.499
	c-0.379,0.333-0.568,0.97-0.568,1.914v3.99H331.245z M338.448,97.646l1.229-0.197c0.069,0.495,0.259,0.874,0.568,1.137
	c0.317,0.255,0.758,0.383,1.322,0.383c0.572,0,0.994-0.116,1.265-0.348c0.278-0.232,0.417-0.503,0.417-0.812
	c0-0.278-0.119-0.499-0.359-0.661c-0.17-0.108-0.592-0.248-1.264-0.417c-0.913-0.232-1.547-0.429-1.902-0.592
	c-0.349-0.17-0.615-0.402-0.801-0.696c-0.178-0.302-0.267-0.63-0.267-0.986c0-0.325,0.073-0.626,0.221-0.905
	c0.154-0.278,0.359-0.51,0.614-0.696c0.193-0.139,0.456-0.259,0.789-0.36c0.332-0.1,0.688-0.15,1.066-0.15
	c0.58,0,1.087,0.085,1.52,0.255c0.434,0.163,0.75,0.387,0.951,0.673c0.209,0.278,0.352,0.653,0.43,1.125l-1.207,0.163
	c-0.054-0.371-0.216-0.661-0.486-0.87c-0.264-0.216-0.635-0.325-1.114-0.325c-0.571,0-0.978,0.097-1.218,0.29
	c-0.239,0.186-0.359,0.402-0.359,0.649c0,0.163,0.051,0.309,0.151,0.441c0.101,0.131,0.259,0.24,0.476,0.325
	c0.123,0.046,0.486,0.155,1.09,0.325c0.874,0.232,1.484,0.421,1.832,0.568c0.349,0.147,0.619,0.363,0.812,0.649
	c0.201,0.286,0.302,0.642,0.302,1.067c0,0.41-0.12,0.8-0.36,1.171c-0.239,0.363-0.587,0.646-1.043,0.847
	c-0.457,0.193-0.971,0.29-1.543,0.29c-0.951,0-1.678-0.197-2.181-0.591C338.904,99.002,338.588,98.419,338.448,97.646z
	 M345.373,97.646l1.229-0.197c0.069,0.495,0.259,0.874,0.568,1.137c0.316,0.255,0.758,0.383,1.322,0.383
	c0.572,0,0.993-0.116,1.264-0.348c0.278-0.232,0.418-0.503,0.418-0.812c0-0.278-0.12-0.499-0.359-0.661
	c-0.171-0.108-0.592-0.248-1.265-0.417c-0.912-0.232-1.547-0.429-1.902-0.592c-0.348-0.17-0.614-0.402-0.8-0.696
	c-0.178-0.302-0.267-0.63-0.267-0.986c0-0.325,0.073-0.626,0.22-0.905c0.155-0.278,0.359-0.51,0.615-0.696
	c0.193-0.139,0.456-0.259,0.788-0.36c0.333-0.1,0.688-0.15,1.067-0.15c0.58,0,1.087,0.085,1.52,0.255
	c0.433,0.163,0.75,0.387,0.951,0.673c0.209,0.278,0.352,0.653,0.429,1.125l-1.206,0.163c-0.054-0.371-0.217-0.661-0.487-0.87
	c-0.263-0.216-0.634-0.325-1.113-0.325c-0.572,0-0.979,0.097-1.218,0.29c-0.239,0.186-0.359,0.402-0.359,0.649
	c0,0.163,0.05,0.309,0.15,0.441c0.101,0.131,0.259,0.24,0.476,0.325c0.124,0.046,0.487,0.155,1.09,0.325
	c0.874,0.232,1.485,0.421,1.833,0.568s0.618,0.363,0.812,0.649c0.201,0.286,0.302,0.642,0.302,1.067c0,0.41-0.119,0.8-0.359,1.171
	c-0.239,0.363-0.588,0.646-1.044,0.847c-0.456,0.193-0.971,0.29-1.543,0.29c-0.95,0-1.678-0.197-2.18-0.591
	C345.829,99.002,345.512,98.419,345.373,97.646z M352.796,99.826v-7.319h1.113v1.044c0.542-0.804,1.318-1.206,2.331-1.206
	c0.441,0,0.848,0.081,1.219,0.243c0.371,0.155,0.646,0.364,0.823,0.626c0.186,0.255,0.317,0.557,0.395,0.905
	c0.046,0.232,0.069,0.634,0.069,1.206v4.5h-1.241v-4.454c0-0.502-0.05-0.877-0.15-1.125c-0.093-0.255-0.263-0.456-0.511-0.603
	c-0.247-0.147-0.537-0.22-0.87-0.22c-0.525,0-0.981,0.166-1.368,0.499c-0.379,0.333-0.568,0.97-0.568,1.914v3.99H352.796z
	 M360.51,91.15v-1.415h1.241v1.415H360.51z M360.51,99.826v-7.319h1.241v7.319H360.51z M366.289,98.713l0.174,1.102
	c-0.348,0.07-0.661,0.104-0.939,0.104c-0.448,0-0.797-0.069-1.044-0.209c-0.247-0.146-0.422-0.332-0.522-0.557
	c-0.1-0.232-0.15-0.723-0.15-1.473v-4.199h-0.916v-0.974h0.916v-1.809l1.229-0.743v2.552h1.253v0.974h-1.253v4.269
	c0,0.355,0.02,0.584,0.058,0.685c0.047,0.1,0.12,0.182,0.221,0.243c0.101,0.062,0.244,0.093,0.43,0.093
	C365.875,98.771,366.057,98.751,366.289,98.713z M370.137,98.713l0.174,1.102c-0.348,0.07-0.661,0.104-0.939,0.104
	c-0.448,0-0.797-0.069-1.044-0.209c-0.247-0.146-0.422-0.332-0.522-0.557c-0.1-0.232-0.15-0.723-0.15-1.473v-4.199h-0.916v-0.974
	h0.916v-1.809l1.229-0.743v2.552h1.253v0.974h-1.253v4.269c0,0.355,0.02,0.584,0.058,0.685c0.047,0.1,0.12,0.182,0.221,0.243
	c0.101,0.062,0.244,0.093,0.43,0.093C369.723,98.771,369.904,98.751,370.137,98.713z"/>
<path fill="#A4C2F4" d="M114.425,481.184h132.26v60.088h-132.26V481.184z"/>
<path d="M133.193,530.803v-10.091h1.346v4.141h5.243v-4.141h1.333v10.091h-1.333v-4.755h-5.243v4.755H133.193z M142.533,527.149
	c0-1.354,0.379-2.358,1.136-3.018c0.626-0.541,1.392-0.812,2.297-0.812c1.005,0,1.825,0.332,2.459,0.997
	c0.642,0.655,0.962,1.563,0.962,2.726c0,0.943-0.143,1.688-0.429,2.229c-0.278,0.532-0.688,0.949-1.229,1.253
	c-0.533,0.294-1.121,0.438-1.763,0.438c-1.021,0-1.848-0.328-2.482-0.984C142.85,529.322,142.533,528.379,142.533,527.149z
	 M143.809,527.149c0,0.936,0.205,1.636,0.615,2.1c0.41,0.464,0.924,0.695,1.543,0.695c0.619,0,1.129-0.231,1.531-0.695
	c0.41-0.472,0.615-1.188,0.615-2.146c0-0.902-0.205-1.589-0.615-2.053s-0.92-0.693-1.531-0.693c-0.619,0-1.133,0.229-1.543,0.693
	C144.014,525.514,143.809,526.214,143.809,527.149z M150.699,530.803v-7.316h1.113v1.03c0.224-0.354,0.526-0.642,0.905-0.856
	c0.386-0.227,0.823-0.336,1.311-0.336c0.541,0,0.986,0.109,1.334,0.336c0.348,0.225,0.591,0.541,0.73,0.951
	c0.58-0.858,1.334-1.287,2.262-1.287c0.727,0,1.284,0.2,1.67,0.603c0.394,0.402,0.591,1.021,0.591,1.855v5.021h-1.241v-4.604
	c0-0.495-0.039-0.853-0.116-1.067c-0.077-0.224-0.224-0.399-0.441-0.533c-0.208-0.132-0.456-0.195-0.742-0.195
	c-0.51,0-0.936,0.17-1.276,0.511c-0.34,0.34-0.51,0.889-0.51,1.646v4.245h-1.241v-4.755c0-0.55-0.101-0.959-0.301-1.229
	c-0.201-0.278-0.534-0.418-0.998-0.418c-0.348,0-0.673,0.093-0.975,0.276c-0.293,0.18-0.506,0.444-0.638,0.802
	c-0.131,0.354-0.197,0.864-0.197,1.529v3.793L150.699,530.803L150.699,530.803z M167.246,528.448l1.276,0.162
	c-0.201,0.741-0.576,1.32-1.125,1.738c-0.541,0.41-1.237,0.614-2.088,0.614c-1.067,0-1.914-0.328-2.54-0.984
	s-0.939-1.58-0.939-2.771c0-1.229,0.313-2.185,0.939-2.864c0.634-0.681,1.458-1.021,2.471-1.021c0.982,0,1.782,0.332,2.401,0.997
	c0.619,0.665,0.928,1.604,0.928,2.816c0,0.069-0.004,0.18-0.012,0.325h-5.451c0.046,0.804,0.274,1.419,0.685,1.844
	c0.41,0.428,0.92,0.64,1.531,0.64c0.449,0,0.831-0.116,1.148-0.35C166.793,529.357,167.052,528.975,167.246,528.448z
	 M163.175,526.441h4.083c-0.054-0.61-0.209-1.07-0.464-1.382c-0.395-0.479-0.909-0.719-1.542-0.719c-0.564,0-1.044,0.193-1.438,0.58
	C163.426,525.301,163.213,525.808,163.175,526.441z M177.302,527.266l1.334,0.336c-0.278,1.1-0.781,1.938-1.508,2.519
	c-0.727,0.572-1.616,0.856-2.668,0.856c-1.09,0-1.976-0.22-2.656-0.659c-0.681-0.448-1.199-1.092-1.554-1.927
	c-0.356-0.843-0.534-1.748-0.534-2.714c0-1.052,0.197-1.969,0.591-2.749c0.402-0.779,0.975-1.373,1.717-1.773
	c0.742-0.409,1.558-0.614,2.447-0.614c1.013,0,1.864,0.259,2.552,0.777c0.688,0.51,1.167,1.229,1.438,2.155l-1.311,0.313
	c-0.232-0.735-0.572-1.271-1.021-1.603c-0.449-0.341-1.009-0.511-1.682-0.511c-0.773,0-1.423,0.188-1.949,0.558
	c-0.518,0.37-0.885,0.875-1.102,1.509c-0.208,0.626-0.313,1.271-0.313,1.938c0,0.857,0.124,1.607,0.371,2.25
	c0.255,0.634,0.646,1.109,1.171,1.427c0.534,0.316,1.106,0.477,1.717,0.477c0.75,0,1.384-0.212,1.902-0.638
	C176.765,528.758,177.117,528.116,177.302,527.266z M179.475,527.149c0-1.354,0.378-2.358,1.136-3.018
	c0.626-0.541,1.392-0.812,2.297-0.812c1.005,0,1.825,0.332,2.458,0.997c0.642,0.655,0.963,1.563,0.963,2.726
	c0,0.943-0.143,1.688-0.429,2.229c-0.278,0.532-0.688,0.949-1.229,1.253c-0.533,0.294-1.121,0.438-1.763,0.438
	c-1.021,0-1.848-0.328-2.482-0.984C179.792,529.322,179.475,528.379,179.475,527.149z M180.75,527.149
	c0,0.936,0.205,1.636,0.615,2.1c0.41,0.464,0.924,0.695,1.543,0.695c0.619,0,1.129-0.231,1.531-0.695
	c0.41-0.472,0.615-1.188,0.615-2.146c0-0.902-0.205-1.589-0.615-2.053s-0.92-0.693-1.531-0.693c-0.619,0-1.133,0.229-1.543,0.693
	C180.955,525.514,180.75,526.214,180.75,527.149z M187.64,530.803v-7.316h1.114v1.044c0.541-0.807,1.318-1.206,2.331-1.206
	c0.441,0,0.847,0.081,1.218,0.243c0.372,0.152,0.646,0.361,0.824,0.626c0.186,0.256,0.317,0.557,0.395,0.903
	c0.046,0.231,0.069,0.636,0.069,1.206v4.5h-1.241v-4.454c0-0.502-0.05-0.877-0.151-1.125c-0.093-0.255-0.263-0.456-0.51-0.603
	c-0.248-0.147-0.538-0.221-0.87-0.221c-0.526,0-0.982,0.166-1.369,0.498c-0.379,0.332-0.568,0.971-0.568,1.913v3.989L187.64,530.803
	L187.64,530.803z M198.057,529.689l0.174,1.102c-0.348,0.07-0.661,0.104-0.939,0.104c-0.449,0-0.796-0.067-1.044-0.209
	c-0.248-0.146-0.421-0.331-0.522-0.557c-0.101-0.229-0.151-0.723-0.151-1.473v-4.199h-0.916v-0.974h0.916v-1.812l1.229-0.742v2.554
	h1.253v0.974h-1.253v4.269c0,0.355,0.02,0.584,0.058,0.687c0.046,0.101,0.12,0.182,0.22,0.243c0.101,0.062,0.244,0.093,0.429,0.093
	C197.643,529.747,197.824,529.729,198.057,529.689z M199.178,530.803v-7.316h1.114v1.111c0.286-0.519,0.549-0.856,0.789-1.021
	c0.24-0.17,0.506-0.255,0.8-0.255c0.417,0,0.843,0.135,1.276,0.403l-0.429,1.148c-0.302-0.178-0.607-0.267-0.916-0.267
	c-0.271,0-0.515,0.08-0.731,0.241c-0.209,0.163-0.359,0.389-0.452,0.675c-0.139,0.438-0.209,0.924-0.209,1.448v3.827h-1.242V530.803
	z M203.338,527.149c0-1.354,0.379-2.358,1.137-3.018c0.626-0.541,1.392-0.812,2.296-0.812c1.005,0,1.825,0.332,2.459,0.997
	c0.642,0.655,0.962,1.563,0.962,2.726c0,0.943-0.143,1.688-0.429,2.229c-0.278,0.532-0.688,0.949-1.229,1.253
	c-0.534,0.294-1.122,0.438-1.763,0.438c-1.021,0-1.848-0.328-2.482-0.984C203.655,529.322,203.338,528.379,203.338,527.149z
	 M204.614,527.149c0,0.936,0.205,1.636,0.615,2.1s0.924,0.695,1.542,0.695s1.129-0.231,1.531-0.695
	c0.41-0.472,0.615-1.188,0.615-2.146c0-0.902-0.205-1.589-0.615-2.053c-0.41-0.464-0.92-0.693-1.531-0.693
	c-0.619,0-1.133,0.229-1.542,0.693C204.818,525.514,204.614,526.214,204.614,527.149z M211.48,530.803v-10.091h1.241v10.091H211.48z
	 M214.557,530.803v-10.091h1.241v10.091H214.557z M222.668,528.448l1.276,0.162c-0.201,0.741-0.576,1.32-1.125,1.738
	c-0.542,0.41-1.237,0.614-2.088,0.614c-1.067,0-1.914-0.328-2.54-0.984s-0.939-1.58-0.939-2.771c0-1.229,0.313-2.185,0.939-2.864
	c0.634-0.681,1.458-1.021,2.47-1.021c0.982,0,1.783,0.332,2.401,0.997s0.928,1.604,0.928,2.816c0,0.069-0.004,0.18-0.012,0.325
	h-5.451c0.046,0.804,0.274,1.419,0.684,1.844c0.41,0.428,0.92,0.64,1.531,0.64c0.448,0,0.831-0.116,1.148-0.35
	C222.216,529.357,222.475,528.975,222.668,528.448z M218.597,526.441h4.083c-0.054-0.61-0.209-1.07-0.464-1.382
	c-0.395-0.479-0.909-0.719-1.543-0.719c-0.564,0-1.044,0.193-1.438,0.58C218.848,525.301,218.635,525.808,218.597,526.441z
	 M225.348,530.803v-7.316h1.113v1.111c0.286-0.519,0.549-0.856,0.789-1.021c0.24-0.17,0.506-0.255,0.8-0.255
	c0.417,0,0.843,0.135,1.276,0.403l-0.429,1.148c-0.302-0.178-0.607-0.267-0.917-0.267c-0.271,0-0.514,0.08-0.73,0.241
	c-0.209,0.163-0.36,0.389-0.453,0.675c-0.139,0.438-0.208,0.924-0.208,1.448v3.827h-1.241V530.803z"/>
<path fill="#F3F3F3" d="M114.425,537.654h132.26v60.086h-132.26V537.654z"/>
<path fill="none" stroke="#C9DAF8" stroke-linejoin="round" stroke-miterlimit="10" d="M114.425,537.654h132.26v60.086h-132.26
	V537.654z"/>
<path d="M121.663,553.289l1.438-6.913h0.917l-1.438,6.913H121.663z M124.18,553.289l1.044-4.999h0.766l-0.174,0.87
	c0.333-0.351,0.646-0.602,0.939-0.754c0.294-0.155,0.592-0.232,0.894-0.232c0.402,0,0.719,0.112,0.951,0.336
	c0.232,0.217,0.348,0.507,0.348,0.87c0,0.188-0.039,0.479-0.116,0.882l-0.638,3.027h-0.858l0.673-3.167
	c0.062-0.31,0.093-0.537,0.093-0.685c0-0.172-0.058-0.307-0.174-0.405c-0.116-0.108-0.282-0.162-0.499-0.162
	c-0.433,0-0.819,0.158-1.16,0.476c-0.34,0.316-0.592,0.854-0.754,1.612l-0.487,2.331H124.18L124.18,553.289z M133.057,552.559
	c-0.487,0.564-0.997,0.849-1.531,0.849c-0.472,0-0.866-0.175-1.183-0.522c-0.317-0.354-0.476-0.865-0.476-1.53
	c0-0.609,0.124-1.167,0.371-1.671c0.247-0.503,0.561-0.878,0.939-1.125c0.379-0.255,0.754-0.383,1.125-0.383
	c0.626,0,1.098,0.298,1.415,0.896l0.568-2.691h0.847l-1.45,6.913h-0.777L133.057,552.559z M130.714,551.189
	c0,0.348,0.035,0.62,0.104,0.821c0.069,0.201,0.186,0.371,0.348,0.513c0.17,0.132,0.372,0.195,0.604,0.195
	c0.386,0,0.738-0.201,1.055-0.604c0.417-0.533,0.626-1.194,0.626-1.983c0-0.395-0.104-0.703-0.313-0.928
	c-0.209-0.226-0.468-0.336-0.777-0.336c-0.208,0-0.398,0.046-0.568,0.139c-0.162,0.093-0.329,0.248-0.499,0.464
	c-0.163,0.219-0.302,0.495-0.417,0.835C130.769,550.641,130.714,550.935,130.714,551.189z M138.861,551.584l0.823,0.093
	c-0.116,0.41-0.39,0.8-0.823,1.171c-0.425,0.372-0.936,0.56-1.531,0.56c-0.371,0-0.711-0.086-1.021-0.256
	c-0.31-0.18-0.545-0.431-0.708-0.754c-0.163-0.324-0.244-0.695-0.244-1.113c0-0.549,0.124-1.078,0.371-1.589
	c0.255-0.521,0.584-0.901,0.986-1.148c0.402-0.247,0.839-0.371,1.311-0.371c0.595,0,1.071,0.188,1.426,0.559
	c0.356,0.37,0.534,0.878,0.534,1.52c0,0.239-0.02,0.491-0.058,0.754h-3.688c-0.015,0.094-0.023,0.179-0.023,0.255
	c0,0.474,0.108,0.831,0.325,1.079c0.216,0.247,0.479,0.371,0.789,0.371c0.294,0,0.58-0.097,0.858-0.29
	C138.475,552.226,138.699,551.947,138.861,551.584z M136.379,550.343h2.807c0-0.085,0-0.146,0-0.186c0-0.425-0.108-0.75-0.325-0.977
	c-0.209-0.229-0.479-0.348-0.812-0.348c-0.363,0-0.696,0.128-0.998,0.383C136.75,549.465,136.526,549.84,136.379,550.343z
	 M140.351,553.289l2.169-2.54l-1.241-2.459h0.939l0.429,0.881c0.155,0.333,0.294,0.654,0.417,0.963l1.45-1.844h1.032l-2.1,2.528
	l1.264,2.471h-0.939l-0.499-1.021c-0.108-0.217-0.232-0.481-0.371-0.801l-1.485,1.821L140.351,553.289L140.351,553.289z
	 M146.863,555.318c-0.495-1.082-0.743-2.191-0.743-3.328c0-0.758,0.101-1.466,0.302-2.123c0.201-0.657,0.506-1.309,0.917-1.948
	c0.271-0.426,0.7-0.979,1.287-1.659h0.673c-0.371,0.396-0.762,0.947-1.171,1.659c-0.41,0.711-0.708,1.411-0.893,2.099
	c-0.186,0.688-0.278,1.383-0.278,2.076c0,1.037,0.182,2.111,0.545,3.227L146.863,555.318L146.863,555.318z M150.518,546.26
	c0.495,1.083,0.742,2.192,0.742,3.329c0,0.768-0.101,1.479-0.302,2.134c-0.193,0.65-0.495,1.296-0.905,1.938
	c-0.278,0.425-0.711,0.979-1.299,1.658h-0.661c0.363-0.396,0.75-0.951,1.16-1.67c0.41-0.712,0.708-1.407,0.893-2.09
	c0.186-0.688,0.279-1.38,0.279-2.074c0-1.036-0.182-2.11-0.545-3.227L150.518,546.26L150.518,546.26z"/>
<path fill="#A4C2F4" d="M114.425,210.386h132.26v60.086h-132.26V210.386z"/>
<path d="M164.927,245.005v-10.091h1.345v10.091H164.927z M168.392,245.005v-7.319h1.113v1.044c0.542-0.804,1.318-1.207,2.332-1.207
	c0.44,0,0.847,0.082,1.218,0.244c0.371,0.155,0.646,0.364,0.823,0.626c0.186,0.255,0.317,0.557,0.395,0.905
	c0.046,0.232,0.07,0.634,0.07,1.206v4.5h-1.241v-4.454c0-0.502-0.05-0.877-0.151-1.125c-0.093-0.255-0.263-0.456-0.51-0.603
	c-0.247-0.147-0.538-0.22-0.87-0.22c-0.525,0-0.982,0.166-1.369,0.499c-0.379,0.333-0.568,0.97-0.568,1.914v3.99H168.392z
	 M180.838,245.005v-0.928c-0.464,0.727-1.145,1.09-2.042,1.09c-0.58,0-1.117-0.158-1.612-0.476
	c-0.487-0.325-0.866-0.773-1.137-1.345c-0.263-0.58-0.395-1.245-0.395-1.995c0-0.727,0.12-1.388,0.359-1.983
	c0.248-0.595,0.611-1.051,1.09-1.369c0.487-0.317,1.032-0.476,1.635-0.476c0.441,0,0.832,0.093,1.172,0.279
	c0.348,0.188,0.63,0.429,0.847,0.73v-3.619h1.229v10.091L180.838,245.005L180.838,245.005z M176.917,241.351
	c0,0.936,0.197,1.636,0.592,2.1c0.402,0.464,0.87,0.696,1.403,0.696c0.541,0,1.001-0.22,1.38-0.661s0.568-1.117,0.568-2.03
	c0-0.998-0.193-1.728-0.58-2.192c-0.387-0.472-0.862-0.708-1.427-0.708c-0.549,0-1.009,0.224-1.38,0.672
	C177.103,239.677,176.917,240.385,176.917,241.351z M188.807,242.65l1.276,0.162c-0.201,0.743-0.576,1.322-1.125,1.74
	c-0.542,0.41-1.237,0.615-2.088,0.615c-1.067,0-1.914-0.329-2.54-0.986c-0.626-0.657-0.939-1.581-0.939-2.772
	c0-1.229,0.313-2.185,0.939-2.865c0.634-0.681,1.458-1.021,2.471-1.021c0.982,0,1.782,0.333,2.401,0.998
	c0.619,0.665,0.928,1.604,0.928,2.819c0,0.069-0.004,0.178-0.012,0.325h-5.451c0.046,0.804,0.274,1.419,0.684,1.844
	c0.41,0.425,0.92,0.638,1.531,0.638c0.448,0,0.831-0.116,1.148-0.348C188.354,243.559,188.613,243.176,188.807,242.65z
	 M184.735,240.644h4.083c-0.054-0.611-0.209-1.071-0.464-1.38c-0.395-0.479-0.909-0.719-1.543-0.719
	c-0.564,0-1.044,0.193-1.438,0.58C184.987,239.503,184.774,240.01,184.735,240.644z M190.675,245.005l2.667-3.805l-2.471-3.514
	h1.554l1.125,1.717c0.208,0.325,0.375,0.599,0.499,0.823c0.209-0.301,0.398-0.572,0.568-0.812l1.229-1.728h1.473l-2.517,3.445
	l2.714,3.874h-1.519l-1.508-2.273l-0.395-0.615l-1.925,2.888H190.675z"/>
<path fill-opacity="0" d="M310.638,655.938h106.893v27.38H310.638V655.938z"/>
<path fill="#666666" d="M321.781,671.339l1.206-0.163c0.031,0.768,0.174,1.292,0.429,1.578c0.263,0.286,0.619,0.429,1.067,0.429
	c0.34,0,0.63-0.077,0.87-0.229c0.248-0.155,0.414-0.364,0.499-0.627c0.093-0.264,0.139-0.687,0.139-1.266v-6.946h1.346v6.878
	c0,0.843-0.104,1.496-0.313,1.961c-0.201,0.464-0.526,0.817-0.975,1.064c-0.44,0.24-0.958,0.359-1.554,0.359
	c-0.889,0-1.57-0.255-2.042-0.766C321.99,673.102,321.766,672.344,321.781,671.339z M328.276,674.203l3.886-10.091h1.438
	l4.129,10.091h-1.52l-1.183-3.062h-4.222l-1.102,3.062H328.276z M331.188,670.062h3.422l-1.044-2.809
	c-0.325-0.843-0.564-1.539-0.719-2.088c-0.131,0.649-0.313,1.291-0.545,1.926L331.188,670.062z M341.515,674.203l-3.92-10.091h1.45
	l2.621,7.33c0.217,0.588,0.395,1.137,0.534,1.646c0.155-0.549,0.336-1.098,0.545-1.646l2.726-7.33h1.369l-3.955,10.091H341.515z
	 M346.75,674.203l3.885-10.091h1.438l4.129,10.091h-1.519l-1.183-3.062h-4.222l-1.102,3.062H346.75z M349.662,670.062h3.422
	l-1.044-2.809c-0.325-0.843-0.564-1.539-0.719-2.088c-0.131,0.649-0.313,1.291-0.545,1.926L349.662,670.062z M356.648,670.956
	l1.253-0.104c0.062,0.502,0.201,0.916,0.417,1.241c0.216,0.324,0.553,0.587,1.009,0.788c0.464,0.201,0.982,0.302,1.554,0.302
	c0.511,0,0.959-0.075,1.346-0.229c0.395-0.155,0.688-0.364,0.881-0.627s0.29-0.549,0.29-0.858c0-0.314-0.093-0.591-0.278-0.821
	c-0.186-0.24-0.491-0.44-0.917-0.604c-0.271-0.106-0.87-0.271-1.797-0.486c-0.928-0.225-1.578-0.438-1.949-0.639
	c-0.479-0.255-0.839-0.568-1.079-0.938c-0.232-0.37-0.348-0.788-0.348-1.253c0-0.511,0.143-0.984,0.429-1.427
	c0.294-0.449,0.715-0.785,1.264-1.01c0.557-0.231,1.175-0.348,1.856-0.348c0.75,0,1.411,0.118,1.983,0.357
	c0.572,0.24,1.009,0.596,1.311,1.067c0.309,0.464,0.476,0.993,0.499,1.589l-1.275,0.093c-0.07-0.634-0.306-1.113-0.708-1.438
	c-0.394-0.332-0.978-0.498-1.751-0.498c-0.804,0-1.392,0.148-1.763,0.452c-0.371,0.294-0.557,0.647-0.557,1.065
	c0,0.363,0.131,0.661,0.394,0.895c0.255,0.23,0.924,0.472,2.007,0.719c1.09,0.248,1.836,0.464,2.238,0.649
	c0.588,0.271,1.021,0.613,1.299,1.031c0.286,0.409,0.429,0.885,0.429,1.426c0,0.543-0.155,1.054-0.464,1.531
	c-0.31,0.474-0.754,0.839-1.334,1.104c-0.572,0.263-1.218,0.394-1.937,0.394c-0.913,0-1.678-0.131-2.296-0.394
	c-0.619-0.271-1.106-0.673-1.461-1.207C356.846,672.243,356.664,671.636,356.648,670.956z M373.541,670.666l1.334,0.336
	c-0.278,1.099-0.781,1.938-1.508,2.518c-0.727,0.571-1.616,0.857-2.667,0.857c-1.09,0-1.976-0.22-2.656-0.661
	c-0.681-0.448-1.199-1.09-1.554-1.925c-0.356-0.843-0.534-1.748-0.534-2.714c0-1.052,0.197-1.969,0.592-2.749
	c0.402-0.781,0.974-1.373,1.716-1.774c0.743-0.409,1.558-0.613,2.447-0.613c1.013,0,1.864,0.259,2.552,0.775
	c0.688,0.51,1.167,1.229,1.438,2.157l-1.311,0.312c-0.232-0.733-0.572-1.269-1.021-1.601c-0.448-0.341-1.009-0.511-1.682-0.511
	c-0.773,0-1.423,0.186-1.949,0.557c-0.518,0.371-0.885,0.874-1.102,1.508c-0.209,0.626-0.313,1.272-0.313,1.938
	c0,0.855,0.124,1.606,0.371,2.25c0.255,0.634,0.646,1.107,1.171,1.427c0.534,0.316,1.106,0.478,1.717,0.478
	c0.75,0,1.384-0.215,1.902-0.641C373.003,672.158,373.355,671.517,373.541,670.666z M376.362,674.203v-10.091h4.477
	c0.897,0,1.578,0.089,2.042,0.267c0.472,0.178,0.847,0.499,1.125,0.963c0.278,0.456,0.417,0.963,0.417,1.521
	c0,0.719-0.232,1.326-0.696,1.819c-0.457,0.487-1.171,0.798-2.146,0.93c0.356,0.17,0.626,0.336,0.812,0.499
	c0.387,0.361,0.754,0.812,1.102,1.345l1.763,2.749h-1.682l-1.334-2.1c-0.394-0.604-0.719-1.066-0.974-1.394
	c-0.248-0.324-0.472-0.549-0.673-0.673c-0.201-0.131-0.402-0.22-0.603-0.267c-0.155-0.038-0.406-0.06-0.754-0.06h-1.542v4.488
	L376.362,674.203L376.362,674.203z M377.696,668.566h2.865c0.611,0,1.086-0.062,1.427-0.188c0.348-0.132,0.611-0.336,0.789-0.615
	c0.186-0.276,0.278-0.579,0.278-0.902c0-0.479-0.174-0.87-0.522-1.172c-0.348-0.311-0.897-0.466-1.647-0.466h-3.189v3.343H377.696
	L377.696,668.566z M386.561,674.203v-10.091h1.346v10.091H386.561z M390.188,674.203v-10.091h3.804c0.673,0,1.187,0.029,1.542,0.093
	c0.495,0.085,0.909,0.244,1.241,0.476c0.333,0.232,0.599,0.559,0.8,0.977c0.209,0.417,0.312,0.874,0.312,1.368
	c0,0.856-0.274,1.586-0.823,2.181c-0.542,0.596-1.527,0.894-2.958,0.894h-2.587v4.105L390.188,674.203L390.188,674.203z
	 M391.521,668.902h2.61c0.866,0,1.477-0.158,1.833-0.478c0.363-0.324,0.545-0.774,0.545-1.354c0-0.428-0.108-0.789-0.325-1.092
	c-0.209-0.302-0.487-0.498-0.835-0.592c-0.224-0.062-0.638-0.093-1.241-0.093h-2.587V668.902z M401.988,674.203v-8.907h-3.317
	v-1.184h7.992v1.184h-3.34v8.907H401.988z"/>
<path fill-opacity="0" d="M188.007,655.938h123.189v27.38H188.007V655.938z"/>
<path fill="#666666" d="M202.639,674.203l3.886-10.091h1.438l4.129,10.091h-1.52l-1.183-3.062h-4.222l-1.102,3.062H202.639z
	 M205.551,670.062h3.421l-1.044-2.809c-0.325-0.843-0.562-1.539-0.719-2.088c-0.131,0.649-0.313,1.291-0.545,1.926L205.551,670.062z
	 M212.538,670.956l1.252-0.104c0.062,0.502,0.201,0.916,0.417,1.241c0.217,0.324,0.553,0.587,1.009,0.788
	c0.464,0.201,0.982,0.302,1.554,0.302c0.51,0,0.958-0.075,1.345-0.229c0.395-0.155,0.688-0.364,0.882-0.627s0.29-0.549,0.29-0.858
	c0-0.314-0.093-0.591-0.279-0.821c-0.186-0.24-0.491-0.44-0.916-0.604c-0.271-0.106-0.87-0.271-1.798-0.486
	c-0.928-0.225-1.578-0.438-1.949-0.639c-0.479-0.255-0.839-0.568-1.079-0.938c-0.232-0.37-0.348-0.788-0.348-1.253
	c0-0.511,0.143-0.984,0.429-1.427c0.294-0.449,0.715-0.785,1.265-1.01c0.557-0.231,1.175-0.348,1.855-0.348
	c0.75,0,1.411,0.118,1.983,0.357c0.572,0.24,1.009,0.596,1.311,1.067c0.31,0.464,0.476,0.993,0.499,1.589l-1.276,0.093
	c-0.07-0.634-0.306-1.113-0.708-1.438c-0.395-0.332-0.978-0.498-1.751-0.498c-0.804,0-1.392,0.148-1.763,0.452
	c-0.371,0.294-0.557,0.647-0.557,1.065c0,0.363,0.131,0.661,0.395,0.895c0.255,0.23,0.924,0.472,2.006,0.719
	c1.09,0.248,1.836,0.464,2.239,0.649c0.587,0.271,1.021,0.613,1.299,1.031c0.286,0.409,0.429,0.885,0.429,1.426
	c0,0.543-0.154,1.054-0.464,1.531c-0.309,0.474-0.754,0.839-1.334,1.104c-0.572,0.263-1.218,0.394-1.937,0.394
	c-0.912,0-1.678-0.131-2.296-0.394c-0.619-0.271-1.105-0.673-1.461-1.207C212.734,672.243,212.553,671.636,212.538,670.956z
	 M222.227,674.203v-10.091h3.805c0.673,0,1.187,0.029,1.542,0.093c0.495,0.085,0.909,0.244,1.241,0.476
	c0.333,0.232,0.599,0.559,0.8,0.977c0.208,0.417,0.313,0.874,0.313,1.368c0,0.856-0.274,1.586-0.823,2.181
	c-0.542,0.596-1.527,0.894-2.958,0.894h-2.586v4.105L222.227,674.203L222.227,674.203z M223.561,668.902h2.61
	c0.866,0,1.477-0.158,1.833-0.478c0.363-0.324,0.545-0.774,0.545-1.354c0-0.428-0.108-0.789-0.325-1.092
	c-0.208-0.302-0.487-0.498-0.835-0.592c-0.224-0.062-0.638-0.093-1.241-0.093h-2.586L223.561,668.902L223.561,668.902z
	 M231.649,668.3v-1.415h1.415v1.415H231.649z M231.649,674.203v-1.415h1.415v1.415H231.649z M235.3,674.203v-10.091h1.369
	l5.301,7.922v-7.922h1.276v10.091h-1.369l-5.301-7.936v7.936H235.3z M245.336,674.203v-10.091h7.307v1.184h-5.973v3.097h5.59v1.185
	h-5.59v3.434h6.205v1.194L245.336,674.203L245.336,674.203z M257.113,674.203v-8.907h-3.317v-1.184h7.991v1.184h-3.34v8.907H257.113
	z M266.81,674.203v-10.091h2.019l2.389,7.145c0.216,0.665,0.375,1.164,0.476,1.497c0.116-0.371,0.298-0.913,0.545-1.624l2.413-7.018
	h1.798v10.091h-1.288v-8.455l-2.934,8.455h-1.207l-2.923-8.595v8.595H266.81z M281.281,674.203l-3.92-10.091h1.45l2.621,7.33
	c0.216,0.588,0.395,1.137,0.534,1.646c0.154-0.549,0.336-1.098,0.545-1.646l2.726-7.33h1.369l-3.955,10.091H281.281z
	 M294.833,670.666l1.334,0.336c-0.278,1.099-0.781,1.938-1.508,2.518c-0.727,0.571-1.616,0.857-2.668,0.857
	c-1.09,0-1.976-0.22-2.656-0.661c-0.681-0.448-1.199-1.09-1.554-1.925c-0.356-0.843-0.534-1.748-0.534-2.714
	c0-1.052,0.197-1.969,0.591-2.749c0.402-0.781,0.975-1.373,1.717-1.774c0.742-0.409,1.558-0.613,2.447-0.613
	c1.013,0,1.864,0.259,2.552,0.775c0.688,0.51,1.167,1.229,1.438,2.157l-1.311,0.312c-0.232-0.733-0.572-1.269-1.021-1.601
	c-0.448-0.341-1.009-0.511-1.682-0.511c-0.773,0-1.423,0.186-1.949,0.557c-0.518,0.371-0.885,0.874-1.102,1.508
	c-0.208,0.626-0.313,1.272-0.313,1.938c0,0.855,0.124,1.606,0.371,2.25c0.255,0.634,0.646,1.107,1.171,1.427
	c0.534,0.316,1.106,0.478,1.717,0.478c0.75,0,1.384-0.215,1.902-0.641C294.295,672.158,294.647,671.517,294.833,670.666z"/>
<path fill="none" stroke="#C9DAF8" stroke-linejoin="round" stroke-miterlimit="10" d="M316.75,554.462h173.182v60.087H316.75
	V554.462z"/>
<path fill="#A4C2F4" d="M563.456,180.389h132.26v60.087h-132.26V180.389z"/>
<path d="M605.987,215.008v-10.091h1.334v4.999l5.021-4.999h1.812L609.919,209l4.419,6.008h-1.763l-3.597-5.115l-1.657,1.612v3.503
	H605.987z M619.898,214.103c-0.466,0.395-0.908,0.673-1.334,0.835c-0.427,0.154-0.883,0.232-1.368,0.232
	c-0.797,0-1.411-0.193-1.845-0.58c-0.435-0.395-0.649-0.897-0.649-1.508c0-0.364,0.081-0.692,0.244-0.986
	c0.162-0.294,0.374-0.53,0.638-0.708c0.263-0.178,0.562-0.313,0.895-0.406c0.246-0.069,0.613-0.131,1.103-0.186
	c1.005-0.124,1.743-0.267,2.215-0.429c0-0.17,0-0.278,0-0.325c0-0.502-0.116-0.858-0.348-1.067
	c-0.317-0.278-0.789-0.417-1.415-0.417c-0.58,0-1.01,0.101-1.287,0.301c-0.279,0.201-0.482,0.564-0.615,1.09l-1.218-0.174
	c0.116-0.518,0.298-0.936,0.545-1.252c0.255-0.317,0.618-0.561,1.091-0.731c0.479-0.178,1.035-0.267,1.67-0.267
	c0.626,0,1.135,0.073,1.521,0.22s0.673,0.333,0.856,0.557c0.187,0.224,0.312,0.506,0.385,0.847c0.046,0.209,0.067,0.588,0.067,1.137
	v1.659c0,1.152,0.023,1.883,0.069,2.192c0.054,0.302,0.162,0.592,0.325,0.87h-1.301C620.011,214.752,619.93,214.451,619.898,214.103
	z M619.794,211.343c-0.448,0.178-1.125,0.333-2.029,0.464c-0.511,0.069-0.87,0.151-1.079,0.244
	c-0.209,0.093-0.369,0.228-0.485,0.406c-0.116,0.178-0.174,0.375-0.174,0.592c0,0.332,0.124,0.611,0.37,0.835
	c0.256,0.216,0.622,0.325,1.104,0.325c0.479,0,0.904-0.104,1.275-0.313c0.369-0.217,0.646-0.503,0.821-0.858
	c0.134-0.286,0.197-0.7,0.197-1.241V211.343L619.794,211.343z M622.811,215.008v-7.319h1.113v1.114
	c0.286-0.518,0.549-0.858,0.789-1.021c0.239-0.17,0.506-0.255,0.8-0.255c0.418,0,0.843,0.135,1.276,0.406l-0.43,1.148
	c-0.304-0.178-0.606-0.267-0.916-0.267c-0.271,0-0.517,0.082-0.73,0.244c-0.209,0.163-0.36,0.387-0.453,0.673
	c-0.139,0.441-0.208,0.924-0.208,1.45v3.828L622.811,215.008L622.811,215.008z M630.146,213.895l0.175,1.102
	c-0.35,0.07-0.661,0.104-0.939,0.104c-0.448,0-0.796-0.069-1.044-0.209c-0.247-0.146-0.421-0.332-0.521-0.557
	c-0.103-0.232-0.15-0.723-0.15-1.473v-4.199h-0.917v-0.974h0.917v-1.809l1.229-0.743v2.552h1.253v0.974h-1.253v4.269
	c0,0.355,0.021,0.584,0.061,0.685c0.046,0.1,0.12,0.182,0.221,0.243c0.102,0.062,0.243,0.093,0.431,0.093
	C629.734,213.952,629.916,213.933,630.146,213.895z M634.178,215.008l3.888-10.091h1.438l4.129,10.091h-1.52l-1.185-3.062h-4.223
	l-1.104,3.062H634.178z M637.089,210.867h3.422l-1.044-2.807c-0.324-0.843-0.562-1.539-0.719-2.087
	c-0.132,0.649-0.313,1.291-0.546,1.925L637.089,210.867z M644.366,217.814v-10.125h1.137v0.951c0.263-0.371,0.562-0.649,0.895-0.835
	c0.341-0.186,0.744-0.278,1.218-0.278c0.627,0,1.18,0.162,1.659,0.487c0.479,0.317,0.839,0.77,1.077,1.357
	c0.247,0.587,0.37,1.229,0.37,1.925c0,0.75-0.135,1.426-0.403,2.03c-0.271,0.595-0.661,1.051-1.173,1.369
	c-0.512,0.317-1.049,0.476-1.611,0.476c-0.417,0-0.792-0.085-1.125-0.255c-0.325-0.178-0.592-0.398-0.8-0.661v3.561h-1.242
	L644.366,217.814L644.366,217.814z M645.491,211.389c0,0.943,0.188,1.639,0.566,2.087c0.389,0.449,0.853,0.673,1.394,0.673
	c0.549,0,1.017-0.232,1.403-0.696c0.395-0.464,0.592-1.187,0.592-2.169c0-0.928-0.193-1.624-0.58-2.088
	c-0.379-0.464-0.835-0.696-1.368-0.696c-0.526,0-0.994,0.248-1.404,0.742C645.692,209.738,645.491,210.454,645.491,211.389z
	 M652.079,206.332v-1.415h1.241v1.415H652.079z M652.079,215.008v-7.319h1.241v7.319H652.079z"/>
<path fill="#A4C2F4" d="M563.456,267.545h132.26v60.086h-132.26V267.545z"/>
<path d="M594.212,298.209v-1.194h4.28v3.746c-0.657,0.526-1.338,0.92-2.041,1.186c-0.696,0.263-1.412,0.394-2.146,0.394
	c-0.987,0-1.891-0.212-2.702-0.638c-0.805-0.425-1.415-1.04-1.833-1.844c-0.407-0.807-0.612-1.701-0.612-2.691
	c0-0.982,0.205-1.898,0.612-2.749c0.41-0.851,1.002-1.481,1.775-1.891c0.772-0.417,1.662-0.626,2.667-0.626
	c0.729,0,1.384,0.12,1.972,0.36c0.598,0.232,1.062,0.561,1.395,0.986c0.332,0.417,0.587,0.966,0.766,1.647l-1.207,0.325
	c-0.152-0.51-0.344-0.913-0.566-1.206c-0.226-0.294-0.545-0.53-0.963-0.708c-0.419-0.178-0.883-0.267-1.394-0.267
	c-0.61,0-1.141,0.093-1.589,0.278c-0.44,0.186-0.8,0.433-1.078,0.742c-0.271,0.302-0.479,0.634-0.627,0.998
	c-0.263,0.619-0.396,1.295-0.396,2.03c0,0.897,0.155,1.651,0.466,2.262c0.315,0.604,0.77,1.054,1.355,1.348
	c0.598,0.294,1.228,0.438,1.893,0.438c0.58,0,1.145-0.11,1.691-0.336c0.55-0.225,0.968-0.46,1.253-0.708v-1.879L594.212,298.209
	L594.212,298.209z M599.638,298.511c0-1.353,0.379-2.358,1.138-3.016c0.627-0.541,1.393-0.812,2.297-0.812
	c1.006,0,1.825,0.333,2.459,0.998c0.642,0.657,0.963,1.566,0.963,2.726c0,0.941-0.146,1.686-0.432,2.228
	c-0.276,0.533-0.688,0.95-1.229,1.252c-0.533,0.294-1.121,0.441-1.763,0.441c-1.021,0-1.85-0.329-2.482-0.986
	C599.954,300.684,599.638,299.74,599.638,298.511z M600.913,298.511c0,0.938,0.205,1.636,0.614,2.102
	c0.41,0.464,0.925,0.693,1.543,0.693c0.619,0,1.129-0.229,1.531-0.693c0.408-0.474,0.612-1.188,0.612-2.146
	c0-0.905-0.204-1.589-0.612-2.053c-0.41-0.464-0.922-0.696-1.531-0.696c-0.618,0-1.133,0.232-1.543,0.696
	C601.118,296.875,600.913,297.575,600.913,298.511z M607.339,298.511c0-1.353,0.379-2.358,1.137-3.016
	c0.628-0.541,1.395-0.812,2.299-0.812c1.005,0,1.823,0.333,2.459,0.998c0.642,0.657,0.963,1.566,0.963,2.726
	c0,0.941-0.146,1.686-0.432,2.228c-0.276,0.533-0.688,0.95-1.229,1.252c-0.533,0.294-1.121,0.441-1.763,0.441
	c-1.021,0-1.85-0.329-2.482-0.986C607.656,300.684,607.339,299.74,607.339,298.511z M608.615,298.511
	c0,0.938,0.205,1.636,0.612,2.102c0.41,0.464,0.927,0.693,1.544,0.693s1.13-0.229,1.53-0.693c0.409-0.474,0.614-1.188,0.614-2.146
	c0-0.905-0.205-1.589-0.614-2.053c-0.41-0.464-0.92-0.696-1.53-0.696c-0.617,0-1.134,0.232-1.544,0.696
	C608.82,296.875,608.615,297.575,608.615,298.511z M615.285,302.768l1.192,0.188c0.057,0.371,0.197,0.642,0.432,0.812
	c0.301,0.227,0.719,0.339,1.252,0.339c0.58,0,1.022-0.116,1.334-0.351c0.31-0.224,0.521-0.541,0.638-0.95
	c0.062-0.256,0.089-0.789,0.082-1.602c-0.542,0.643-1.215,0.963-2.019,0.963c-1.005,0-1.786-0.363-2.345-1.09
	c-0.549-0.729-0.822-1.597-0.822-2.609c0-0.695,0.128-1.338,0.383-1.926c0.256-0.596,0.623-1.052,1.103-1.369
	c0.479-0.325,1.04-0.487,1.684-0.487c0.864,0,1.577,0.348,2.134,1.044v-0.881h1.146v6.321c0,1.146-0.114,1.952-0.348,2.424
	c-0.232,0.479-0.6,0.854-1.103,1.125c-0.503,0.278-1.121,0.418-1.855,0.418c-0.874,0-1.581-0.195-2.122-0.592
	C615.517,304.147,615.262,303.557,615.285,302.768z M616.306,298.371c0,0.967,0.189,1.671,0.568,2.111
	c0.387,0.438,0.866,0.659,1.438,0.659c0.562,0,1.038-0.221,1.426-0.659c0.387-0.44,0.58-1.131,0.58-2.064
	c0-0.896-0.2-1.57-0.604-2.018c-0.395-0.457-0.87-0.685-1.427-0.685c-0.549,0-1.018,0.225-1.403,0.673
	C616.499,296.829,616.306,297.49,616.306,298.371z M623.185,302.164v-10.09h1.24v10.09H623.185z M631.295,299.81l1.275,0.163
	c-0.201,0.742-0.576,1.322-1.125,1.739c-0.541,0.41-1.237,0.615-2.088,0.615c-1.066,0-1.913-0.329-2.54-0.986
	c-0.626-0.657-0.939-1.581-0.939-2.771c0-1.229,0.313-2.186,0.939-2.864c0.635-0.681,1.458-1.021,2.471-1.021
	c0.981,0,1.782,0.333,2.401,0.998c0.616,0.665,0.928,1.604,0.928,2.818c0,0.069-0.004,0.178-0.012,0.325h-5.451
	c0.046,0.804,0.272,1.419,0.684,1.844c0.41,0.426,0.921,0.638,1.531,0.638c0.448,0,0.831-0.113,1.146-0.348
	C630.843,300.719,631.102,300.336,631.295,299.81z M627.224,297.804h4.083c-0.055-0.611-0.209-1.071-0.464-1.381
	c-0.395-0.479-0.909-0.719-1.543-0.719c-0.562,0-1.044,0.193-1.438,0.58C627.475,296.663,627.263,297.169,627.224,297.804z
	 M637.95,302.164v-10.09h2.018l2.392,7.145c0.217,0.664,0.375,1.163,0.476,1.496c0.116-0.371,0.298-0.913,0.545-1.624l2.412-7.017
	h1.798v10.09h-1.287v-8.455l-2.935,8.455h-1.206l-2.923-8.594v8.594H637.95z M654.148,301.26c-0.466,0.396-0.908,0.673-1.334,0.835
	c-0.427,0.154-0.883,0.232-1.368,0.232c-0.797,0-1.411-0.193-1.845-0.58c-0.435-0.396-0.649-0.897-0.649-1.508
	c0-0.363,0.081-0.692,0.244-0.986c0.162-0.294,0.375-0.529,0.638-0.707s0.562-0.312,0.895-0.406
	c0.246-0.067,0.613-0.132,1.103-0.186c1.005-0.124,1.743-0.267,2.215-0.429c0-0.17,0-0.279,0-0.325c0-0.502-0.116-0.858-0.348-1.067
	c-0.317-0.278-0.789-0.417-1.415-0.417c-0.58,0-1.009,0.101-1.287,0.302c-0.279,0.201-0.482,0.564-0.615,1.09l-1.218-0.174
	c0.116-0.519,0.298-0.936,0.545-1.253c0.255-0.317,0.619-0.561,1.091-0.73c0.479-0.178,1.036-0.267,1.67-0.267
	c0.626,0,1.135,0.074,1.521,0.221c0.387,0.147,0.673,0.333,0.856,0.557c0.187,0.224,0.312,0.506,0.385,0.847
	c0.046,0.208,0.067,0.587,0.067,1.137v1.661c0,1.15,0.023,1.883,0.069,2.19c0.055,0.301,0.162,0.591,0.325,0.869h-1.301
	C654.261,301.909,654.18,301.607,654.148,301.26z M654.044,298.499c-0.448,0.178-1.125,0.333-2.029,0.464
	c-0.511,0.07-0.87,0.151-1.079,0.244s-0.369,0.228-0.485,0.405c-0.115,0.178-0.174,0.375-0.174,0.592
	c0,0.333,0.124,0.611,0.37,0.835c0.257,0.217,0.622,0.325,1.104,0.325c0.479,0,0.904-0.104,1.275-0.313
	c0.369-0.217,0.646-0.503,0.821-0.856c0.134-0.286,0.197-0.699,0.197-1.241V298.499L654.044,298.499z M657.072,304.972v-10.125
	h1.137v0.951c0.263-0.371,0.561-0.65,0.893-0.835c0.343-0.186,0.746-0.278,1.22-0.278c0.627,0,1.18,0.163,1.659,0.487
	c0.479,0.317,0.839,0.77,1.076,1.357c0.248,0.588,0.371,1.229,0.371,1.926c0,0.75-0.135,1.427-0.403,2.029
	c-0.271,0.596-0.661,1.052-1.173,1.367c-0.512,0.316-1.049,0.478-1.611,0.478c-0.418,0-0.792-0.085-1.125-0.256
	c-0.325-0.18-0.592-0.397-0.802-0.661v3.562L657.072,304.972L657.072,304.972z M658.197,298.546c0,0.943,0.188,1.639,0.566,2.088
	c0.389,0.448,0.853,0.672,1.394,0.672c0.549,0,1.017-0.229,1.403-0.693c0.395-0.464,0.592-1.188,0.592-2.169
	c0-0.93-0.193-1.625-0.58-2.088c-0.379-0.464-0.835-0.696-1.369-0.696c-0.525,0-0.993,0.247-1.403,0.742
	C658.398,296.895,658.197,297.61,658.197,298.546z M664.275,299.983l1.229-0.196c0.069,0.494,0.259,0.873,0.568,1.136
	c0.314,0.256,0.758,0.383,1.322,0.383c0.57,0,0.991-0.113,1.264-0.348c0.276-0.231,0.418-0.503,0.418-0.812
	c0-0.276-0.12-0.499-0.359-0.659c-0.171-0.108-0.592-0.248-1.265-0.418c-0.912-0.231-1.547-0.431-1.902-0.594
	c-0.348-0.17-0.614-0.399-0.8-0.693c-0.178-0.302-0.267-0.63-0.267-0.986c0-0.325,0.071-0.626,0.22-0.904
	c0.155-0.278,0.359-0.511,0.615-0.696c0.191-0.139,0.456-0.259,0.788-0.359c0.333-0.101,0.688-0.151,1.065-0.151
	c0.58,0,1.087,0.085,1.521,0.255c0.433,0.162,0.75,0.387,0.95,0.673c0.209,0.278,0.353,0.653,0.43,1.125l-1.206,0.162
	c-0.055-0.371-0.217-0.661-0.487-0.87c-0.263-0.217-0.634-0.325-1.112-0.325c-0.571,0-0.979,0.097-1.219,0.29
	c-0.238,0.186-0.357,0.402-0.357,0.65c0,0.162,0.05,0.309,0.148,0.44c0.103,0.132,0.259,0.24,0.478,0.325
	c0.124,0.046,0.485,0.154,1.091,0.325c0.873,0.23,1.482,0.422,1.832,0.566c0.349,0.147,0.619,0.363,0.812,0.649
	c0.2,0.286,0.302,0.643,0.302,1.065c0,0.41-0.118,0.803-0.358,1.173c-0.239,0.362-0.588,0.646-1.044,0.848
	c-0.456,0.191-0.971,0.29-1.542,0.29c-0.951,0-1.679-0.197-2.182-0.592C664.731,301.341,664.414,300.757,664.275,299.983z"/>
<path fill-opacity="0" d="M180.556,366.184v-95.709"/>
<path fill="none" stroke="#000000" stroke-width="2" stroke-linejoin="round" stroke-miterlimit="10" stroke-dasharray="8,6" d="
	M180.556,476.184V282.38"/>
<path stroke="#000000" stroke-width="2" stroke-miterlimit="10" d="M183.008,282.38l-2.452-6.737l-2.452,6.737H183.008z"/>
<path fill-opacity="0" d="M249.137,241.838h66.937"/>
<path fill="none" stroke="#000000" stroke-width="2" stroke-linejoin="round" stroke-miterlimit="10" stroke-dasharray="8,6" d="
	M249.137,241.838h58.029"/>
<path stroke="#000000" stroke-width="2" stroke-miterlimit="10" d="M307.166,244.291l6.737-2.452l-6.737-2.452V244.291z"/>
<path fill-opacity="0" d="M475.753,240.78l73.974,0.257"/>
<path fill-opacity="0" d="M403.341,319.009v45.367"/>
<path fill-opacity="0" d="M486.883,210.432l78.229,0.608"/>
<path fill="none" stroke="#000000" stroke-width="2" stroke-linejoin="round" stroke-miterlimit="10" stroke-dasharray="8,6" d="
	M486.883,210.432l69.321,0.539"/>
<path stroke="#000000" stroke-width="2" stroke-miterlimit="10" d="M556.186,213.423l6.758-2.4l-6.72-2.504L556.186,213.423z"/>
<path fill-opacity="0" d="M486.883,297.285l78.229,0.606"/>
<path fill="none" stroke="#000000" stroke-width="2" stroke-linejoin="round" stroke-miterlimit="10" stroke-dasharray="8,6" d="
	M486.883,297.285l69.321,0.539"/>
<path stroke="#000000" stroke-width="2" stroke-miterlimit="10" d="M556.186,300.275l6.758-2.399l-6.72-2.505L556.186,300.275z"/>
<path fill="#A4C2F4" d="M319.997,180.693h166.688v60.086H319.997V180.693z"/>
<path d="M377.963,212.447l1.207-0.162c0.031,0.766,0.174,1.291,0.429,1.577c0.263,0.286,0.619,0.429,1.067,0.429
	c0.34,0,0.63-0.077,0.87-0.232c0.248-0.155,0.414-0.363,0.499-0.626c0.093-0.263,0.139-0.684,0.139-1.264v-6.947h1.346v6.878
	c0,0.843-0.104,1.496-0.313,1.96c-0.201,0.464-0.526,0.82-0.974,1.067c-0.441,0.24-0.959,0.36-1.554,0.36
	c-0.889,0-1.57-0.255-2.042-0.766C378.172,214.21,377.948,213.453,377.963,212.447z M385.12,212.064l1.252-0.104
	c0.062,0.502,0.201,0.916,0.417,1.241c0.217,0.325,0.553,0.588,1.009,0.789c0.464,0.201,0.982,0.301,1.554,0.301
	c0.51,0,0.959-0.077,1.345-0.232c0.395-0.155,0.688-0.363,0.882-0.626c0.193-0.263,0.29-0.549,0.29-0.858
	c0-0.317-0.093-0.592-0.279-0.824c-0.186-0.24-0.491-0.441-0.916-0.603c-0.271-0.108-0.87-0.271-1.798-0.487
	c-0.928-0.224-1.578-0.437-1.949-0.638c-0.479-0.255-0.839-0.568-1.079-0.939c-0.232-0.372-0.348-0.789-0.348-1.253
	c0-0.51,0.143-0.986,0.429-1.427c0.293-0.448,0.715-0.785,1.264-1.009c0.557-0.232,1.175-0.348,1.855-0.348
	c0.75,0,1.411,0.12,1.983,0.36c0.572,0.239,1.009,0.595,1.311,1.067c0.31,0.464,0.476,0.994,0.499,1.589l-1.276,0.093
	c-0.07-0.634-0.306-1.113-0.708-1.438c-0.395-0.333-0.978-0.499-1.751-0.499c-0.804,0-1.392,0.151-1.763,0.453
	c-0.372,0.293-0.557,0.649-0.557,1.067c0,0.363,0.132,0.661,0.395,0.893c0.255,0.232,0.924,0.472,2.006,0.719
	c1.09,0.248,1.837,0.464,2.239,0.649c0.587,0.271,1.021,0.615,1.299,1.032c0.286,0.41,0.429,0.886,0.429,1.427
	s-0.154,1.052-0.464,1.531c-0.309,0.472-0.754,0.839-1.334,1.102c-0.572,0.263-1.218,0.395-1.937,0.395
	c-0.912,0-1.678-0.131-2.296-0.395c-0.619-0.271-1.105-0.673-1.461-1.206C385.316,213.352,385.135,212.745,385.12,212.064z
	 M402.012,211.774l1.334,0.336c-0.279,1.098-0.781,1.937-1.508,2.517c-0.727,0.572-1.616,0.858-2.668,0.858
	c-1.09,0-1.976-0.221-2.656-0.661c-0.68-0.449-1.198-1.09-1.554-1.925c-0.355-0.843-0.533-1.748-0.533-2.714
	c0-1.052,0.197-1.968,0.591-2.749c0.402-0.781,0.975-1.372,1.717-1.774c0.742-0.41,1.558-0.615,2.447-0.615
	c1.013,0,1.863,0.259,2.552,0.777c0.688,0.51,1.167,1.229,1.438,2.157l-1.311,0.313c-0.232-0.734-0.572-1.268-1.021-1.601
	c-0.449-0.34-1.009-0.51-1.682-0.51c-0.773,0-1.422,0.186-1.948,0.557c-0.518,0.371-0.886,0.874-1.102,1.508
	c-0.208,0.626-0.313,1.272-0.313,1.937c0,0.858,0.124,1.608,0.371,2.25c0.255,0.634,0.646,1.11,1.171,1.427
	c0.534,0.317,1.106,0.476,1.717,0.476c0.75,0,1.384-0.212,1.902-0.638C401.474,213.267,401.826,212.625,402.012,211.774z
	 M404.625,215.312v-10.091h1.241v10.091H404.625z M407.736,206.637v-1.415h1.241v1.415H407.736z M407.736,215.312v-7.319h1.241
	v7.319H407.736z M415.812,212.958l1.276,0.163c-0.201,0.742-0.576,1.322-1.125,1.74c-0.541,0.41-1.237,0.615-2.087,0.615
	c-1.067,0-1.914-0.329-2.541-0.986c-0.626-0.657-0.939-1.582-0.939-2.772c0-1.229,0.313-2.185,0.939-2.865
	c0.634-0.68,1.458-1.021,2.471-1.021c0.982,0,1.782,0.333,2.401,0.998s0.928,1.604,0.928,2.818c0,0.07-0.004,0.178-0.011,0.325
	h-5.452c0.046,0.804,0.274,1.419,0.685,1.844c0.41,0.425,0.92,0.638,1.531,0.638c0.449,0,0.832-0.116,1.148-0.348
	C415.359,213.866,415.619,213.483,415.812,212.958z M411.741,210.951h4.083c-0.054-0.611-0.208-1.071-0.464-1.38
	c-0.395-0.479-0.909-0.719-1.542-0.719c-0.564,0-1.044,0.193-1.438,0.58C411.992,209.811,411.779,210.317,411.741,210.951z
	 M418.503,215.312v-7.319h1.113v1.044c0.541-0.804,1.318-1.207,2.332-1.207c0.438,0,0.847,0.081,1.218,0.244
	c0.371,0.155,0.646,0.363,0.823,0.626c0.186,0.255,0.315,0.557,0.395,0.904c0.046,0.232,0.069,0.634,0.069,1.207v4.5h-1.241v-4.454
	c0-0.502-0.05-0.877-0.15-1.125c-0.093-0.255-0.263-0.456-0.511-0.603c-0.247-0.147-0.537-0.221-0.869-0.221
	c-0.524,0-0.98,0.167-1.369,0.499c-0.379,0.333-0.568,0.97-0.568,1.914v3.99L418.503,215.312L418.503,215.312z M428.919,214.199
	l0.175,1.102c-0.349,0.069-0.662,0.104-0.938,0.104c-0.449,0-0.797-0.07-1.045-0.209c-0.247-0.147-0.421-0.333-0.521-0.557
	c-0.101-0.232-0.148-0.723-0.148-1.473v-4.199h-0.917v-0.974h0.917v-1.81l1.229-0.742v2.552h1.252v0.974h-1.252v4.269
	c0,0.355,0.021,0.583,0.059,0.684c0.048,0.101,0.119,0.182,0.222,0.244c0.101,0.062,0.243,0.093,0.429,0.093
	C428.506,214.257,428.688,214.237,428.919,214.199z"/>
<path fill="#F3F3F3" d="M319.997,240.78h166.688V431.5H319.997V240.78z"/>
<path fill="none" stroke="#C9DAF8" stroke-linejoin="round" stroke-miterlimit="10" d="M319.997,240.78h166.688V395.5H319.997
	V240.78z"/>
<text transform="matrix(1 0 0 1 327.188 255.1348)" enable-background="new    "><tspan x="0" y="0" font-family="'Arial-ItalicMT'" font-size="11">addInfo(location, marker,</tspan><tspan x="0" y="13.2" font-family="'Arial-ItalicMT'" font-size="11">position, open)</tspan><tspan x="0" y="26.4" font-family="'Arial-ItalicMT'" font-size="11">clear()</tspan><tspan x="0" y="39.6" font-family="'Arial-ItalicMT'" font-size="11">doMap(mapSelector, </tspan><tspan x="0" y="52.8" font-family="'Arial-ItalicMT'" font-size="11">directionsSelector, options)</tspan><tspan x="0" y="66" font-family="'Arial-ItalicMT'" font-size="11">doSearchForFilter(typeIDs)</tspan><tspan x="0" y="79.2" font-family="'Arial-ItalicMT'" font-size="11">doDirection(start, end, mode)</tspan><tspan x="0" y="92.4" font-family="'Arial-ItalicMT'" font-size="11">init(callback)</tspan><tspan x="0" y="105.6" font-family="'Arial-ItalicMT'" font-size="11">refresh(center)</tspan><tspan x="0" y="118.8" font-family="'Arial-ItalicMT'" font-size="11">setLocations(locations, </tspan><tspan x="0" y="132" font-family="'Arial-ItalicMT'" font-size="11">openWindow, clear)</tspan><tspan x="0" y="145.2" font-family="'Arial-ItalicMT'" font-size="11">setLocationTypes()</tspan><tspan x="0" y="158.4" font-family="'Arial-ItalicMT'" font-size="11">setTypes(types)</tspan><tspan x="0" y="171.6" font-family="'Arial-ItalicMT'" font-size="11">showWindow((content, position)</tspan></text>
</svg>
